<svg xmlns="http://www.w3.org/2000/svg" viewBox="0 0 123.63 52.22"><defs><style>.cls-1{fill:#005b7d;}.cls-2{fill:#fff;}</style></defs><title>logo_uimm</title><g id="Calque_2" data-name="Calque 2"><g id="SOUS_HOME_02" data-name="SOUS HOME 02"><rect class="cls-1" width="123.63" height="52.22"/><path class="cls-2" d="M16.6,13.05v15.1c0,2.42.4,4,1.19,5.16a5.78,5.78,0,0,0,5,2.41,5.79,5.79,0,0,0,5-2.41c.79-1.08,1.19-2.71,1.19-5.16V13.05h4.23V29.18a10.13,10.13,0,0,1-2.76,7.31,10.25,10.25,0,0,1-7.64,3.2A10.18,10.18,0,0,1,12.37,29.18V13.05Z"/><path class="cls-2" d="M39.81,14.66V39.13h4.28V12.73a.27.27,0,0,0-.4-.24Z"/><path class="cls-2" d="M77.75,39.13H73.46V22.41c0-.25-.14-.32-.26-.2l-9,9.13a.13.13,0,0,1-.18,0l-8.95-9.13c-.12-.12-.26-.05-.26.2V39.13h-4.3V12.72a.27.27,0,0,1,.46-.19l13,13.05a.11.11,0,0,0,.18,0l13-13a.26.26,0,0,1,.45.19Z"/><path class="cls-2" d="M111.27,39.13H107V22.41c0-.25-.15-.32-.27-.2l-8.95,9.13a.13.13,0,0,1-.18,0l-8.94-9.13c-.12-.12-.27-.05-.27.2V39.13H84.08V12.72a.26.26,0,0,1,.45-.19l13,13.05a.11.11,0,0,0,.18,0l13-13a.27.27,0,0,1,.46.19Z"/></g></g></svg>