<?xml version="1.0" encoding="utf-8"?>
<!-- Generator: Adobe Illustrator 16.0.4, SVG Export Plug-In . SVG Version: 6.00 Build 0)  -->
<!DOCTYPE svg PUBLIC "-//W3C//DTD SVG 1.1//EN" "http://www.w3.org/Graphics/SVG/1.1/DTD/svg11.dtd">
<svg version="1.1" id="Base_tracés_logo__x2B__type"
	 xmlns="http://www.w3.org/2000/svg" xmlns:xlink="http://www.w3.org/1999/xlink" x="0px" y="0px" width="483.226px"
	 height="178.064px" viewBox="0 0 483.226 178.064" enable-background="new 0 0 483.226 178.064" xml:space="preserve">
<g>
	<rect x="3.447" y="140.437" width="136.072" height="34.018"/>
</g>
<g>
	<rect x="139.52" y="4.365" width="340.242" height="136.072"/>
</g>
<g>
	<rect x="139.512" y="140.437" fill="#FFD500" width="340.25" height="34.018"/>
</g>
<g>
	<polygon fill="#E42313" points="139.52,4.365 3.453,4.372 3.447,140.437 139.51,140.437 	"/>
</g>
<g>
	<path fill="#FFFFFF" d="M119.631,67.37c-1.396-1.377-3.248-2.143-5.221-2.146c0,0,0.078,0.03,0.078,0.043
		c-0.557-0.043-1.385-0.039-2.748-0.043h-14.4c-0.828,0-1.555-0.315-2.076-0.85c-0.287-0.257-0.512-0.59-0.641-0.957
		c-0.467-1.094-0.207-2.346,0.619-3.188l16.172-16.177c3.338-3.325,3.408-8.642,0.176-11.893c-3.229-3.228-8.572-3.155-11.889,0.173
		L83.51,48.499c-0.814,0.845-2.078,1.1-3.176,0.646c-1.119-0.454-1.805-1.524-1.781-2.696V29.366
		c-0.023-1.991-0.793-3.836-2.156-5.219c-1.346-1.322-3.061-2.059-4.922-2.059c-3.91,0.012-7.055,3.266-7.055,7.272v17.088
		c0,1.185-0.711,2.242-1.818,2.696c-1.076,0.449-2.346,0.198-3.195-0.646L43.219,32.317c-3.301-3.302-8.609-3.385-11.848-0.142
		c-3.244,3.235-3.17,8.552,0.143,11.877l16.172,16.177c0.857,0.842,1.102,2.094,0.635,3.174c-0.436,1.116-1.49,1.82-2.703,1.824
		l-17.076,0.014c-1.947-0.018-3.822,0.734-5.217,2.129c-1.311,1.326-2.023,3.067-2.023,4.918c-0.027,3.891,3.248,7.045,7.24,7.059
		h17.1c1.168-0.014,2.244,0.711,2.68,1.789c0.457,1.113,0.223,2.377-0.635,3.194l-16.172,16.188
		c-3.338,3.313-3.387,8.659-0.16,11.901c3.217,3.211,8.564,3.135,11.865-0.164l16.188-16.188c0.85-0.853,2.098-1.092,3.195-0.646
		c1.107,0.446,1.818,1.514,1.818,2.718v17.088c0,4.002,3.145,7.247,7.055,7.254c3.885-0.008,7.078-3.252,7.055-7.271V98.137
		c0.023-1.204,0.719-2.265,1.812-2.718c1.09-0.458,2.354-0.194,3.168,0.636l16.191,16.178c3.338,3.32,8.66,3.396,11.889,0.156
		c3.232-3.213,3.152-8.559-0.176-11.894l-16.15-16.161c-0.863-0.848-1.107-2.096-0.641-3.184c0.439-1.1,1.498-1.805,2.717-1.818
		h17.062c1.98,0.014,3.832-0.76,5.219-2.133c1.309-1.325,2.043-3.064,2.043-4.912C121.664,70.451,120.93,68.696,119.631,67.37z
		 M76.969,84.788c0.01,3.301-2.633,5.982-5.848,5.985c-3.242-0.003-5.867-2.681-5.867-5.985V58.261c0-3.296,2.625-5.974,5.867-5.968
		c3.215-0.02,5.848,2.672,5.848,5.968V84.788z"/>
</g>
<g>
	<g>
		<path fill="#FFFFFF" d="M26.035,168.159c-5.75,0-9.945-4.23-9.945-10.32c0-6.082,4.195-10.357,9.945-10.357s10,4.275,10,10.357
			C36.035,163.929,31.785,168.159,26.035,168.159z M26.035,152.503c-2.768,0-4.078,2.271-4.078,5.336
			c0,3.062,1.311,5.291,4.078,5.291c2.77,0,4.123-2.535,4.123-5.291C30.158,154.821,28.805,152.503,26.035,152.503z"/>
	</g>
	<g>
		<path fill="#FFFFFF" d="M77.771,168.159c-3.494,0-6.883-0.906-9.252-2.307l1.941-3.961c2.348,1.172,4.82,1.805,7.641,1.805
			c2.279,0,2.951-0.484,2.951-1.512c0-0.9-0.809-1.357-3.227-2.004c-5.305-1.43-8.713-2.604-8.713-6.801
			c0-4.127,3.652-5.898,8.83-5.898c2.768,0,5.783,0.752,8.146,1.926l-1.842,4.119c-2.195-1.061-4.586-1.582-6.422-1.582
			c-2.375,0-2.992,0.418-2.992,1.285c0,0.832,0.66,1.174,4.572,2.309c3.945,1.172,7.346,2.455,7.346,6.416
			C86.752,166.534,82.73,168.159,77.771,168.159z"/>
	</g>
	<g>
		<path fill="#FFFFFF" d="M106.836,159.503H93.65c0.203,2.725,2.418,3.74,4.537,3.74c1.582,0,2.939-0.525,3.76-1.395l4.135,3.1
			c-1.77,2.039-4.955,3.211-7.895,3.211c-6.355,0-10.381-4.051-10.381-10.32c0-6.082,4.246-10.357,9.832-10.357
			c5.875,0,9.271,4.689,9.271,10.357C106.91,158.599,106.879,159.126,106.836,159.503z M97.344,152.028
			c-2.105,0-3.416,1.543-3.623,3.545h7.568C101.127,153.786,99.941,152.028,97.344,152.028z"/>
	</g>
	<g>
		<path fill="#FFFFFF" d="M118.785,168.159c-1.934,0-3.609-0.678-4.664-1.553v7.848h-5.791v-26.557h5.791v1.252
			c1.098-0.869,2.568-1.668,4.664-1.668c4.709,0,8.574,3.18,8.574,10.588C127.359,163.995,124.248,168.159,118.785,168.159z
			 M117.688,152.388c-1.811,0-2.725,0.693-3.566,1.674v7.484c0.871,1.094,2.225,1.697,3.908,1.697c2.232,0,3.439-1.74,3.439-5.062
			C121.469,154.097,119.963,152.388,117.688,152.388z"/>
	</g>
	<g>
		<path fill="#FFFFFF" d="M57.113,165.181v-8.625c0-5.59-2.537-9.074-8.158-9.074c-2.307,0-4.131,0.799-5.156,1.744v-1.328h-5.781
			v17.326l0,0l0,0c0,1.609,1.299,2.908,2.906,2.908c1.588,0,2.875-1.299,2.875-2.908c0-0.02,0.012-8.326,0.012-8.326
			c0-3.439,1.371-4.51,3.768-4.51c2.408,0,3.738,1.07,3.738,4.619v8.199c0,0.004,0,0.014,0,0.014c0,1.588,1.297,2.885,2.91,2.885
			c1.588,0,2.887-1.297,2.887-2.885C57.113,165.204,57.113,165.192,57.113,165.181z"/>
	</g>
	<g>
		<path fill="#FFFFFF" d="M63.098,153.862c0.887,0,1.619-0.32,2.256-0.943c0.641-0.631,0.939-1.391,0.939-2.244
			c0-0.883-0.299-1.639-0.939-2.25c-0.637-0.645-1.369-0.947-2.256-0.947c-0.875,0-1.619,0.303-2.223,0.947
			c-0.637,0.611-0.951,1.367-0.951,2.25c0,0.854,0.314,1.613,0.951,2.244C61.479,153.542,62.223,153.862,63.098,153.862z
			 M66.004,155.028h-5.766v10.133c0,0.02,0,0.031,0,0.043c0,0.016,0,0.047,0,0.047v0.016l0,0c0.006,0.768,0.293,1.428,0.826,1.982
			c0.586,0.568,1.277,0.855,2.064,0.855c0.777,0,1.469-0.287,2.051-0.855c0.553-0.555,0.836-1.254,0.836-2.045
			c0-0.023-0.012-0.043-0.012-0.086V155.028z"/>
	</g>
</g>
<g>
	<path fill="#FFFFFF" d="M179.74,63.447v-14.55h-11.492v14.55H157.81V26.544h10.438v13.443h11.492V26.544h10.438v36.903H179.74z"/>
	<path fill="#FFFFFF" d="M222.019,63.447l-2.004-6.484h-11.07l-2.004,6.484h-10.965l13.391-36.903h10.333l13.391,36.903H222.019z
		 M216.852,46.419c-1.317-4.745-1.897-6.748-2.372-9.226c-0.475,2.478-1.055,4.534-2.372,9.226l-0.686,2.425h6.115L216.852,46.419z"
		/>
	<path fill="#FFFFFF" d="M252.909,64.027c-9.278,0-16.079-4.64-16.079-16.343v-21.14h10.438v21.14c0,4.534,1.792,7.328,5.799,7.328
		s5.693-2.794,5.693-7.328v-21.14h10.438v21.14C269.199,59.388,262.188,64.027,252.909,64.027z"/>
	<path fill="#FFFFFF" d="M296.029,35.454v27.994h-10.228V35.454h-10.333v-8.91h30.894v8.91H296.029z"/>
	<path fill="#FFFFFF" d="M325.604,64.027c-5.958,0-11.704-1.951-15.553-4.481l4.956-8.013c2.688,1.845,7.381,3.69,10.808,3.69
		c3.638,0,4.797-0.633,4.797-2.373c0-1.371-1.317-2.214-6.273-3.374c-8.909-2.056-13.18-4.481-13.18-11.862
		c0-6.959,5.641-11.651,14.551-11.651c6.273,0,10.807,1.529,14.708,4.271l-4.955,8.013c-3.269-2.214-6.537-3.479-10.28-3.479
		c-3.058,0-3.796,0.949-3.796,2.267c0,1.371,1.318,2.003,6.062,3.11c9.278,2.214,13.391,5.061,13.391,11.967
		C340.839,60.548,334.46,64.027,325.604,64.027z"/>
	<path fill="#FFFFFF" d="M346.53,49.529v-9.911h18.347v9.911H346.53z"/>
	<path fill="#FFFFFF" d="M384.696,63.447h-11.967V26.544h12.916c11.599,0,18.979,4.375,18.979,18.241S397.771,63.447,384.696,63.447
		z M385.593,35.295h-2.53v19.4h2.214c6.379,0,8.857-2.425,8.857-9.753C394.134,38.142,391.972,35.295,385.593,35.295z"/>
	<path fill="#FFFFFF" d="M411.316,63.447V26.544h28.258v8.593h-18.136v4.903h10.913v8.488h-10.913v6.326h18.504v8.593H411.316z"/>
	<path fill="#FFFFFF" d="M442.945,49.529v-9.911h18.346v9.911H442.945z"/>
	<path fill="#FFFFFF" d="M167.984,90.067v5.114h11.545v8.646h-11.545v14.445H157.81V81.368h29.206v8.699H167.984z"/>
	<path fill="#FFFFFF" d="M213.214,118.271l-6.01-12.442h-4.112v12.442h-10.069V81.368h16.501c8.646,0,14.393,3.269,14.393,12.02
		c0,5.535-2.584,8.962-6.643,10.807l7.381,14.076H213.214z M209.26,89.698h-6.168v8.066h6.01c3.321,0,4.64-1.476,4.64-4.112
		C213.741,91.332,212.476,89.698,209.26,89.698z"/>
	<path fill="#FFFFFF" d="M254.332,118.271l-2.004-6.484h-11.07l-2.004,6.484h-10.965l13.391-36.903h10.333l13.391,36.903H254.332z
		 M249.165,101.243c-1.317-4.745-1.897-6.748-2.372-9.226c-0.475,2.478-1.055,4.534-2.372,9.226l-0.686,2.425h6.115L249.165,101.243
		z"/>
	<path fill="#FFFFFF" d="M295.239,118.271l-8.805-12.178c-1.634-2.267-4.797-7.012-5.746-8.646c0.264,1.634,0.316,6.537,0.316,9.542
		v11.282h-9.806V81.368h9.015l8.119,10.913c1.687,2.267,4.955,7.17,5.746,8.699c-0.264-1.634-0.316-6.537-0.316-9.542V81.368h9.806
		v36.903H295.239z"/>
	<path fill="#FFFFFF" d="M326.867,118.852c-10.965,0-16.817-8.119-16.817-19.032c0-11.862,6.959-19.032,16.87-19.032
		c9.068,0,12.653,3.901,15.184,10.86l-9.278,3.638c-1.318-3.427-2.584-5.588-5.958-5.588c-4.27,0-6.115,4.27-6.115,10.122
		c0,5.641,1.793,10.122,6.221,10.122c3.216,0,4.587-1.74,6.59-5.219l8.646,4.586C339.731,114.159,335.619,118.852,326.867,118.852z"
		/>
	<path fill="#FFFFFF" d="M348.269,118.271V81.368h28.258v8.593h-18.136v4.903h10.913v8.488h-10.913v6.326h18.504v8.593H348.269z"/>
</g>
<g>
</g>
<g>
</g>
<g>
</g>
<g>
</g>
<g>
</g>
<g>
</g>
</svg>
